<svg xmlns="http://www.w3.org/2000/svg" version="1.1" preserveAspectRatio="xMinYMin meet" viewBox="323.21 303.95 879.61 877.44">
      
      <defs>
        <linearGradient id="myGradient" x1="0%" x2="0%" y1="0%" y2="100%">
            <stop offset="0%" stop-color="#58427C">
              
            </stop>
            <stop offset="100%" stop-color="#77C3DD">
              
            </stop>


        </linearGradient>
      </defs>

      <g>
      <path d="M 952.801 307.146 C 942.813 312.565, 931.499 323.477, 928.550 330.535 C 925.478 337.886, 923.001 335.987, 922.475 325.879 C 921.731 311.571, 901 331.441, 901 346.462 C 901 356.287, 896.494 356.580, 895.345 346.830 C 893.387 330.210, 881.926 354.703, 883.437 372.278 C 884.135 380.400, 882.491 382.088, 878.292 377.559 C 874.447 373.413, 873.495 375.483, 875.398 383.850 C 881.574 411.006, 872.960 408.036, 861.973 379.221 C 857.430 367.306, 856.785 366.757, 853.328 371.860 C 850.645 375.818, 849.821 374.217, 849.733 364.879 C 849.702 361.645, 849.335 359, 848.917 359 C 845.998 359, 836.676 374.124, 833.508 384 C 830.260 394.126, 830.372 394.010, 828.430 389.250 C 823.872 378.077, 821.151 397.134, 824.534 416.535 C 825.590 422.593, 825.746 425.654, 825.034 426.366 C 824.465 426.935, 823.944 427.085, 823.875 426.700 C 823.806 426.315, 823.673 425.438, 823.580 424.750 C 823.486 424.063, 822.893 423.604, 822.262 423.731 C 821.631 423.858, 819.744 422.591, 818.069 420.915 C 814.076 416.922, 813.002 417.827, 813.483 424.782 C 814.421 438.340, 822.205 454.192, 832.768 464.057 C 838.609 469.512, 839.837 471.125, 838.528 471.627 C 836.655 472.346, 826.427 471.556, 823.750 470.486 C 812 465.788, 833.055 485.790, 847.304 492.863 C 859.084 498.709, 859.389 499.203, 851.699 499.978 C 843.617 500.793, 844.466 502.596, 856.331 509.807 C 865.959 515.659, 870.506 517.790, 883.443 522.510 C 891.141 525.318, 887.038 526.072, 858.500 527.093 C 809.115 528.860, 794.672 534.113, 776.210 557.018 C 773.083 560.898, 770.744 562.885, 769.250 562.931 L 767 563 767 528.088 C 767 484.540, 765.579 476.256, 752.324 442.500 C 739.082 408.779, 724.313 387.269, 693.855 357.343 C 664.256 328.261, 656.016 324.088, 650 335.130 C 648.625 337.654, 644.888 342.534, 641.696 345.975 C 633.114 355.225, 633.293 355.564, 650.500 362.625 C 684.083 376.406, 722.791 423.184, 739.763 470.500 C 742.525 478.200, 745.621 486.750, 746.643 489.500 C 748.428 494.305, 748.519 503.640, 749 729 L 749.500 963.500 753.500 963.500 L 757.500 963.500 758.100 795.500 C 758.762 610.295, 758.407 620.291, 765.042 599.687 C 779.502 554.778, 805.556 538.695, 866.562 537.022 C 919.287 535.576, 925.539 530.133, 914.525 495.267 C 908.159 475.116, 893.454 459.179, 870 447.013 C 856.492 440.006, 844.670 432, 847.831 432 C 848.409 432, 849.183 432.487, 849.551 433.083 C 850.650 434.860, 860.082 440.564, 867.443 443.902 L 874.323 447.021 869.621 442.261 C 863.487 436.052, 855.337 424.224, 853.451 418.796 L 851.959 414.500 854.443 417.500 C 855.810 419.150, 856.944 421.081, 856.964 421.790 C 857.083 426.049, 875.150 445.562, 884.529 451.562 C 897.581 459.911, 915.796 483.062, 919.493 496 C 919.886 497.375, 921.019 500.300, 922.010 502.500 C 923.002 504.700, 924.193 508.750, 924.657 511.500 C 925.758 518.028, 927.604 518.296, 937.456 513.359 C 954.783 504.676, 959.902 491.475, 959.984 455.273 C 960.031 434.304, 940.523 411.932, 916.916 405.882 C 914.212 405.189, 912 404.221, 912 403.731 C 912 402.516, 917.295 403.745, 924.422 406.615 C 927.680 407.927, 930.941 409, 931.670 409 C 933.145 409, 941.939 414.944, 946.355 418.926 C 949.937 422.156, 956.499 431.690, 958.977 437.265 L 960.859 441.500 960.929 418.349 C 961.033 384.519, 957.968 368.423, 948.979 355.591 C 941.858 345.426, 944.675 346.456, 953.770 357.344 C 956.791 360.961, 960.869 373.569, 962.277 383.646 L 963.415 391.792 966.804 382.646 C 969.006 376.705, 972.823 369.557, 977.698 362.250 C 988.214 346.485, 988.203 346.569, 976.762 370 C 964.801 394.494, 965.530 390.154, 965.342 438 C 965.187 477.421, 964.057 494.863, 961.375 499.202 C 960.288 500.961, 969.356 496.277, 985 487 C 988.025 485.206, 993.723 482.266, 997.663 480.466 C 1005.681 476.802, 1006.464 475.810, 1007.497 468 C 1008.249 462.316, 1012.325 447.821, 1014.031 444.764 C 1014.564 443.809, 1015.007 442.459, 1015.015 441.764 C 1015.089 435.788, 1029.098 412.238, 1037.454 404.042 C 1043.427 398.184, 1043.189 399.224, 1036.390 408.689 C 1026 423.154, 1018.311 440.912, 1014.913 458.285 C 1011.622 475.120, 1011.376 474.929, 1026.500 467.306 C 1032 464.533, 1037.625 461.927, 1039 461.513 C 1042.882 460.346, 1052.464 455.749, 1052.815 454.886 C 1052.988 454.461, 1053.775 454.360, 1054.565 454.663 C 1055.354 454.966, 1056 454.716, 1056 454.107 C 1056 453.498, 1056.338 453.053, 1056.750 453.118 C 1057.162 453.184, 1057.838 453.127, 1058.250 452.993 C 1058.662 452.860, 1059.450 452.637, 1060 452.500 C 1060.550 452.363, 1061.225 452.137, 1061.500 452 C 1061.775 451.863, 1062.338 451.666, 1062.750 451.564 C 1063.162 451.462, 1065.235 450.621, 1067.356 449.696 C 1069.477 448.770, 1071.576 448.238, 1072.021 448.513 C 1072.465 448.788, 1072.980 448.627, 1073.165 448.156 C 1074.175 445.575, 1102.300 438.087, 1113.347 437.458 L 1121.500 436.993 1114.570 438.564 C 1110.758 439.427, 1105.808 440.791, 1103.570 441.594 C 1101.331 442.397, 1095.225 444.445, 1090 446.145 C 1080.904 449.105, 1068.015 454.092, 1059.500 457.948 C 1057.300 458.944, 1051 461.637, 1045.500 463.931 C 1016.970 475.833, 1018.543 474.627, 1026.750 478.300 C 1039.589 484.046, 1055.813 488.465, 1071.729 490.551 C 1087.458 492.613, 1089.343 494.025, 1075.500 493.375 C 1060.364 492.664, 1045.202 489.717, 1031.801 484.880 C 1014.313 478.568, 1014.818 478.532, 997.263 487.335 C 973.759 499.122, 934.544 523.868, 933.259 527.724 C 933.023 528.432, 935.195 529.580, 938.683 530.590 C 946.648 532.898, 972.640 543.357, 982.452 548.203 C 990.066 551.964, 990.743 552.120, 995 551.097 C 1004.348 548.852, 1027.432 550.032, 1030.302 552.902 C 1030.798 553.398, 1025.602 553.548, 1018.245 553.250 C 1011.135 552.961, 1003.152 553.050, 1000.505 553.447 L 995.694 554.168 1002.097 558.227 C 1005.619 560.459, 1015.250 566.333, 1023.500 571.279 C 1038.691 580.387, 1048.849 586.892, 1054.736 591.280 L 1057.972 593.693 1066.236 590.789 C 1076.475 587.191, 1091.404 585.662, 1106 586.717 L 1116.500 587.475 1108.500 588.125 C 1069.961 591.253, 1059.328 594.028, 1066.825 599.003 C 1085.521 611.407, 1127.669 650.424, 1127.667 655.324 C 1127.667 656.733, 1127.109 656.435, 1125.212 654.012 C 1117.829 644.578, 1086.560 617.826, 1069.305 606.181 C 1061.777 601.101, 1062 601.111, 1062 605.840 C 1062 618.804, 1071.059 637.971, 1083.293 650.893 C 1087.152 654.969, 1087.238 655.173, 1084.476 653.733 C 1071.829 647.135, 1061.536 628.904, 1059.018 608.642 C 1058.429 603.903, 1057.724 599.457, 1057.452 598.763 C 1056.322 595.884, 1000.651 561.908, 993.883 559.966 C 985.324 557.512, 988.191 616.155, 997.567 635.307 C 999.692 639.649, 999.773 640.090, 998.062 638 C 996.144 635.658, 994.454 632.437, 990.714 624 C 987.682 617.161, 983.654 587.385, 984.605 578.851 C 984.952 575.745, 984.691 569.368, 984.026 564.682 L 982.816 556.161 976.842 551.970 C 969.263 546.654, 952.028 540.312, 934.695 536.462 C 926.375 534.614, 926.006 534.819, 925.977 541.309 C 925.965 544.164, 924.833 557.525, 923.462 571 C 922.092 584.475, 920.295 603.017, 919.470 612.205 C 917.423 634.988, 915.789 638.187, 916.511 618 C 916.815 609.475, 917.325 601.038, 917.643 599.250 C 919.388 589.458, 901.292 606.326, 897.528 618 C 895.826 623.278, 893.145 627.859, 894.309 623.500 C 898.655 607.228, 902.849 600.277, 911.686 594.698 C 918.997 590.083, 922.774 561.364, 918.667 541.615 L 917.859 537.730 912.079 538.334 C 893.357 540.291, 868.270 553.657, 858.665 566.794 C 849.168 579.781, 849.264 583.343, 859 579.313 C 872.019 573.923, 879.662 575.800, 869.984 582.010 C 854.743 591.790, 844.553 616.299, 851.547 626.357 C 852.761 628.103, 852.931 628.035, 854.383 625.226 C 856.365 621.393, 861.793 616.815, 863.883 617.213 C 866.252 617.664, 866.390 621.306, 864.203 625.673 C 858.806 636.449, 856.440 669.600, 860.283 680.606 C 862.193 686.077, 867 691.835, 867 688.652 C 867 686.270, 874.863 678, 877.127 678 C 879.819 678, 879.547 681.987, 876.437 688.124 C 872.478 695.937, 873.358 710.064, 878.050 714 C 878.378 714.275, 878.965 715.362, 879.355 716.416 C 879.954 718.032, 880.597 717.485, 883.468 712.916 C 888.917 704.243, 889.506 703.596, 891.325 704.295 C 893.387 705.086, 893.463 708.672, 891.569 715.788 C 889.005 725.419, 894.268 735.530, 904.906 741.414 L 908.313 743.298 907.649 738.453 C 906.736 731.797, 907.918 721, 909.559 721 C 910.409 721, 911.064 723.271, 911.505 727.750 C 913.103 743.988, 922.609 755.968, 938.661 761.974 C 947.990 765.465, 948.129 765.281, 946.196 752.048 C 944.295 739.030, 947.581 730.242, 950.771 739.813 C 953.447 747.842, 954.644 745.107, 955.393 729.250 C 956.121 713.817, 956.652 710, 958.069 710 C 959.658 710, 962.897 714.255, 963.541 717.188 C 964.924 723.481, 966.501 719.383, 966.346 709.902 C 966.164 698.778, 964.148 690.472, 960.090 684.120 C 954.515 675.395, 951.544 664.983, 952.903 658.934 C 956.926 641.031, 969.447 648.283, 970.692 669.237 C 971.042 675.127, 972.090 681.737, 973.151 684.750 C 974.168 687.638, 975.848 692.388, 976.885 695.306 C 983.204 713.094, 996.207 726.544, 1009 728.522 L 1013.500 729.218 1010.803 726.359 C 1008.137 723.533, 1004.477 716.189, 1005.317 715.350 C 1005.555 715.111, 1008.619 716.687, 1012.125 718.852 C 1017.722 722.307, 1019.506 722.869, 1026.750 723.462 C 1035.518 724.180, 1037.731 723.056, 1031.561 721.020 C 1024.046 718.540, 1009.992 699.007, 1008.342 688.750 C 1007.512 683.594, 1008.915 684.051, 1012.945 690.250 C 1024.584 708.150, 1043.396 720.813, 1063 723.943 C 1069.404 724.965, 1070.809 724.165, 1068.581 720.765 C 1063.541 713.072, 1068.578 706.785, 1075.709 711.869 C 1080.620 715.371, 1106.068 718.509, 1109.896 716.086 C 1111.540 715.045, 1110.662 712, 1108.718 712 C 1103.504 712, 1098.834 701.400, 1102.615 698.147 C 1105.612 695.570, 1105.422 695.571, 1123 698 C 1147.183 701.340, 1202 692.804, 1202 685.697 C 1202 684.996, 1197.361 680.744, 1191.692 676.246 C 1179.060 666.227, 1165 651.881, 1165 649.013 C 1165 646.052, 1167.830 645.362, 1171.418 647.449 C 1173.113 648.434, 1176.895 650.074, 1179.823 651.092 L 1185.146 652.943 1184.441 649.721 C 1182.898 642.674, 1172.603 630.473, 1165.009 626.691 C 1156.701 622.553, 1163.951 620.207, 1174.750 623.539 C 1178.150 624.588, 1177.614 622.226, 1172.836 615.112 C 1168.681 608.923, 1166.494 606.794, 1158 600.663 C 1148.329 593.684, 1152.001 587.625, 1162.680 592.940 C 1170.651 596.907, 1170.992 596.624, 1167.054 589.320 C 1161.791 579.559, 1153.945 573.939, 1141.357 570.916 C 1127.804 567.662, 1128.222 559.607, 1141.819 562.037 C 1150.384 563.568, 1151.807 563.216, 1149.339 560.177 C 1147.113 557.437, 1132.238 551.157, 1126 550.324 C 1114.230 548.752, 1115.356 543, 1127.434 543 C 1134.390 543, 1134.477 541.887, 1127.750 538.968 C 1119.720 535.483, 1101.133 535.044, 1087 538.006 C 1056.927 544.308, 1039.468 540.116, 1043.015 527.445 C 1045.359 519.075, 1049.834 518.200, 1064.897 523.166 C 1077.184 527.217, 1095.105 527.820, 1106 524.548 C 1115.202 521.785, 1116.281 519.897, 1110.077 517.414 C 1103.390 514.739, 1104.380 509.542, 1111.128 511.895 C 1121.686 515.575, 1140.255 511.212, 1131.987 506.993 C 1124.514 503.181, 1126.622 496.691, 1134.613 498.910 C 1142.585 501.123, 1148.989 498.323, 1155.931 489.587 C 1160.627 483.678, 1160.163 482.825, 1152.668 483.593 C 1146.587 484.216, 1146.249 484.131, 1144.146 481.458 L 1141.957 478.675 1144.153 476.338 C 1145.360 475.052, 1146.833 473.996, 1147.424 473.990 C 1152.744 473.942, 1172 459.019, 1172 454.944 C 1172 452.220, 1170.610 451.847, 1166.638 453.507 C 1147.262 461.603, 1157.688 442.846, 1178.239 432.638 C 1196.814 423.411, 1203.370 419.491, 1202.783 417.960 C 1200.672 412.451, 1173.497 396.990, 1162.500 395.042 C 1149.952 392.819, 1148.688 392.452, 1147.609 390.722 C 1146.141 388.367, 1148.194 387.036, 1153.323 387.015 C 1157.820 386.997, 1158.099 384.882, 1154 381.884 C 1148.146 377.602, 1127.738 375.201, 1125.022 378.474 C 1123.332 380.510, 1117.648 381.417, 1115.105 380.056 C 1111.315 378.028, 1112.167 371.623, 1116.500 369.567 C 1128.959 363.655, 1104.946 360.023, 1089.500 365.483 C 1077.627 369.681, 1075.125 368.529, 1081.634 361.863 C 1092.058 351.187, 1074.082 354.670, 1060.641 365.929 C 1053.289 372.089, 1050 371.140, 1050 362.859 C 1050 357.747, 1048.945 356.221, 1046.831 358.274 C 1046.099 358.984, 1044.071 360.571, 1042.324 361.799 C 1038.308 364.621, 1030.199 374.865, 1026.436 381.870 C 1019.851 394.128, 1008.345 396.688, 1006.402 386.327 C 1005.638 382.256, 1010.595 373.936, 1016.442 369.476 C 1020.302 366.533, 1020.232 364.474, 1016.306 365.459 C 1008.557 367.404, 1009.689 364.132, 1024.195 342.657 C 1029.005 335.538, 1028.702 333.472, 1022.983 334.387 C 1017.922 335.196, 1017.878 334.221, 1022.624 326.441 C 1029.479 315.205, 1031.460 309.817, 1029.328 308.207 C 1025.131 305.038, 1008.402 308.510, 999.799 314.336 C 995.422 317.301, 993.578 316.258, 993 310.491 C 992.257 303.079, 981.825 305.706, 969.213 316.482 C 960.019 324.337, 955.785 320.678, 960.937 309.331 C 963.859 302.896, 961.701 302.316, 952.801 307.146 M 511.604 320.038 C 497.899 324.140, 495.249 343.373, 507.408 350.499 L 512 353.190 512 375.360 L 512 397.529 532.750 419.219 L 553.500 440.909 605.740 440.954 L 657.979 441 692.460 474.250 L 726.941 507.500 726.971 536.250 L 727 565 712.558 565 L 698.115 565 675.033 540.250 C 644.115 507.097, 653.606 511.097, 605.673 511.022 C 568.984 510.965, 565.367 510.810, 563.798 509.230 C 562.854 508.278, 552.707 495.350, 541.250 480.500 L 520.418 453.500 495.959 453 L 471.500 452.500 462 442.514 C 456.775 437.022, 449.462 429.338, 445.750 425.439 L 439 418.349 439 406.875 L 439 395.402 442.459 394.151 C 461.949 387.103, 459.297 355.675, 438.763 350.349 C 411.211 343.202, 399.413 385.309, 426.311 394.791 L 431.158 396.500 430.868 408.678 L 430.577 420.857 449.433 440.928 L 468.288 461 489.394 461.014 C 515.871 461.031, 512.511 459.540, 526.137 477.318 C 532.537 485.668, 541.003 496.663, 544.950 501.750 L 552.126 511 535.518 511 L 518.909 511 519.540 507.639 C 522.613 491.256, 501.419 478.660, 488.233 489.032 C 485.861 490.897, 484.044 491, 453.558 491 L 421.385 491 419.599 486.952 C 412.479 470.815, 388 476.699, 388 494.548 C 388 511.071, 409.558 517.190, 418.500 503.205 L 420.500 500.077 450.725 500.039 L 480.950 500 480.387 502.816 C 477.538 517.060, 495.658 529.400, 509.166 522.414 C 512.084 520.905, 639.614 520.340, 643.101 521.820 C 643.981 522.194, 655.613 534.200, 668.949 548.500 C 682.286 562.800, 694.165 574.793, 695.349 575.150 C 700.263 576.636, 730.462 576.065, 732.777 574.443 L 735 572.887 735 538.615 L 735 504.343 697.554 468.172 L 660.108 432 608.146 432 L 556.184 432 538.114 413.250 L 520.045 394.500 520.022 373.871 L 520 353.243 523.020 351.992 C 541.349 344.399, 530.614 314.350, 511.604 320.038 M 445.922 530.274 C 435.238 537.474, 435.422 551.112, 446.271 556.036 C 453.357 559.253, 459.921 558.054, 464.924 552.629 L 467.349 550 528.634 550 L 589.919 550 592.507 552.750 C 593.931 554.263, 599.457 560.563, 604.787 566.750 L 614.478 578 619.239 578 C 625.403 578, 626.221 579.476, 608.957 559.450 L 593.914 542 530.957 542 C 471.667 542, 468 541.898, 467.993 540.250 C 467.961 531.652, 453.545 525.136, 445.922 530.274 M 340.500 567.417 C 326.468 573.680, 326.606 594.585, 340.718 600.623 C 350.120 604.646, 362.016 599.869, 365.306 590.750 C 365.901 589.100, 371.388 589, 461.363 589 L 556.789 589 566.819 599.506 L 576.850 610.012 658.175 609.756 L 739.500 609.500 739.500 605 L 739.500 600.500 660.478 600.244 L 581.456 599.988 570.351 588.994 L 559.246 578 462.123 578 C 392.390 578, 365 577.691, 365 576.904 C 365 569.496, 349.388 563.450, 340.500 567.417 M 454.500 608.909 C 444.475 613.373, 441.949 627.422, 449.767 635.235 L 454.035 639.500 461.979 639.501 L 469.924 639.503 472.966 643.639 C 478.591 651.289, 476.969 651, 514.371 651 L 547.812 651 549.406 646.322 C 550.283 643.749, 551 641.499, 551 641.322 C 551 641.145, 536.244 641, 518.208 641 L 485.416 641 481.091 636.593 C 476.797 632.218, 476.765 632.132, 476.633 624.607 C 476.416 612.263, 465.059 604.208, 454.500 608.909 M 609.500 623.022 C 576.878 629.570, 553.063 665.218, 560.431 696.472 C 572.737 748.676, 638.546 761.931, 669.570 718.455 C 701.105 674.262, 662.195 612.445, 609.500 623.022 M 728.929 627.250 C 684.092 650.189, 684.231 714.307, 729.166 736.445 C 739.882 741.724, 739 746.518, 739 683.023 C 739 616.324, 739.954 621.609, 728.929 627.250 M 811.500 625.981 C 797.964 628.100, 784.735 635.225, 774.750 645.776 L 769 651.852 769 687.422 L 769 722.993 775.690 730.054 C 800.730 756.481, 841.349 754.038, 865.424 724.658 L 869.081 720.196 863.415 711.848 C 856.367 701.464, 857.155 701.553, 852.663 710.630 C 850.513 714.976, 848.508 717.895, 848.020 717.389 C 842.775 711.960, 841.446 668.664, 846.286 660.913 C 848.818 656.859, 837.649 659.342, 831.462 664.209 L 829 666.145 829 663.494 C 829 662.036, 831.295 653.845, 834.100 645.292 C 838.203 632.781, 838.936 629.571, 837.850 628.870 C 833.870 626.302, 819.508 624.727, 811.500 625.981 M 397.192 628.024 C 390.500 632.104, 388.659 639.916, 392.549 647.723 C 397.877 658.413, 413.177 657.637, 418.137 646.424 C 423.960 633.259, 409.476 620.535, 397.192 628.024 M 336.500 655.207 C 315.427 662.573, 320.733 692.946, 343.101 692.994 C 348.954 693.007, 356.672 688.850, 359.052 684.403 L 360.330 682.014 424.915 681.757 L 489.500 681.500 489.815 677.099 C 490.269 670.758, 493.196 671.032, 424.875 671.015 L 362.250 671 361.623 667.867 C 359.805 658.773, 346.081 651.857, 336.500 655.207 M 474.450 696.354 C 461.049 702.421, 463.200 720.354, 477.701 723.453 C 482.121 724.398, 489.499 721.042, 491.769 717.054 L 493.500 714.013 508.668 714.006 C 526.476 713.999, 527 713.870, 527 709.500 C 527 705.130, 526.476 705.001, 508.668 704.994 L 493.500 704.987 491.846 702.079 C 488.537 696.263, 480.497 693.617, 474.450 696.354 M 539.500 730.022 C 506.878 736.570, 483.063 772.218, 490.431 803.472 C 502.737 855.676, 568.546 868.931, 599.570 825.455 C 631.105 781.262, 592.195 719.445, 539.500 730.022 M 675.402 731.953 C 626.885 739.488, 605.267 798.536, 637.962 834.217 C 685.340 885.922, 767.980 828.141, 736.875 765.058 C 725.729 742.453, 699.331 728.237, 675.402 731.953 M 991.561 744.250 C 987.419 769.675, 988.214 768.895, 977.782 757.768 C 972.881 752.541, 969.728 749.894, 969.142 750.518 C 968.008 751.727, 964.641 766.243, 962.537 779 C 960.333 792.358, 960.145 793, 958.432 793 C 954.901 793, 931.771 779.855, 921.556 772.043 L 910.652 763.704 908.372 766.354 C 889.149 788.702, 914.201 840.524, 948.552 849.472 C 1012.852 866.220, 1056.915 770.903, 997.651 743.262 C 991.665 740.470, 992.191 740.384, 991.561 744.250 M 859.491 748.316 C 841.580 766.852, 810.896 771.316, 789.991 758.427 C 777.105 750.482, 772.695 754.603, 768.531 778.482 C 755.446 853.518, 857.459 882.971, 885.283 812.191 C 896.679 783.203, 875.784 731.456, 859.491 748.316 M 423.388 750.980 C 422.227 751.449, 420.314 753.057, 419.138 754.552 C 411.555 764.192, 425.998 776.874, 434.479 768.022 L 437.332 765.044 455.416 764.772 L 473.500 764.500 473.500 761 L 473.500 757.500 455.273 757.228 C 438.322 756.974, 436.973 756.817, 435.994 754.988 C 433.898 751.073, 427.888 749.162, 423.388 750.980 M 350.030 754.583 C 331.727 762.522, 337.481 790.500, 357.416 790.500 C 362.508 790.500, 364.390 790.008, 367.719 787.805 L 371.792 785.109 395.953 809.555 L 420.113 834 449.807 833.930 C 484.635 833.847, 484.298 833.908, 479.978 828.473 C 475.469 822.799, 476.785 823.032, 449.210 823.015 C 417.985 822.996, 422.324 824.985, 396.118 798.679 C 376.129 778.612, 375.749 778.153, 376.375 774.814 C 379.007 760.785, 363.386 748.790, 350.030 754.583 M 605 840.691 C 562.134 847.867, 538.910 899.154, 562.206 935.198 C 594.625 985.356, 671.219 964.643, 675.608 904.532 C 678.348 867.015, 642.324 834.443, 605 840.691 M 890 840.691 C 847.134 847.867, 823.910 899.154, 847.206 935.198 C 879.625 985.356, 956.219 964.643, 960.608 904.532 C 963.348 867.015, 927.324 834.443, 890 840.691 M 731.972 842.858 C 693.683 855.242, 676.873 895.668, 695.221 931.241 C 702.673 945.688, 724.480 961, 737.604 961 L 741 961 741.150 902.500 C 741.232 870.325, 741.345 843.438, 741.400 842.750 C 741.553 840.841, 738.084 840.881, 731.972 842.858 M 766 901 L 766 961 768.318 961 C 799.360 961, 827.913 917.512, 817.561 886 C 810.050 863.137, 785.334 841, 767.318 841 C 766.242 841, 766 852.004, 766 901 M 375.418 849.969 C 370.091 852.124, 366.321 859.431, 367.330 865.647 C 369.630 879.818, 387.481 883.154, 394.208 870.670 C 400.627 858.757, 388.023 844.870, 375.418 849.969 M 456 873.168 L 438.500 891.246 434 888.873 C 415.861 879.307, 399.395 902.601, 414.963 915.803 C 425.655 924.869, 442 916.702, 442 902.293 C 442 898.754, 442.999 897.521, 458.239 882.261 L 474.477 866 497.572 866 C 523.828 866, 522.362 866.356, 519.596 860.654 L 517.500 856.334 502.591 855.667 C 494.391 855.300, 484.491 855.020, 480.591 855.045 L 473.500 855.090 456 873.168 M 486.886 922.798 C 476.649 932.534, 463.973 944.438, 458.718 949.250 L 449.163 958 434.082 958 C 421.128 958, 419 957.781, 419 956.450 C 419 936.081, 382.653 934.584, 377.060 954.723 C 370.067 979.903, 407.587 993.326, 417.666 969.250 L 419.027 966 437.891 966 C 454.248 966, 456.937 965.779, 458.128 964.340 C 458.882 963.427, 470.603 952.177, 484.174 939.340 L 508.848 916 519.924 916 L 531 916 531 911.145 L 531 906.289 524.250 905.652 C 520.538 905.301, 514.800 905.033, 511.500 905.055 L 505.500 905.097 486.886 922.798 M 814.373 950.941 C 784.523 958.924, 764.478 987.054, 767.753 1016.365 C 773.836 1070.796, 834.583 1092.399, 873.151 1053.846 C 917.259 1009.755, 874.484 934.867, 814.373 950.941 M 665.373 952.941 C 635.523 960.924, 615.478 989.054, 618.753 1018.365 C 624.836 1072.796, 685.583 1094.399, 724.151 1055.846 C 768.259 1011.755, 725.484 936.867, 665.373 952.941 M 493.546 993.954 L 471.609 1015.908 467.429 1015.335 C 461.592 1014.535, 456.607 1016.473, 452.670 1021.072 L 449.308 1025 425.904 1024.994 L 402.500 1024.987 400.808 1022.015 C 392.370 1007.183, 368.581 1017.588, 373.043 1034.158 C 376.799 1048.110, 397.596 1049.240, 402.324 1035.750 C 402.885 1034.150, 404.927 1034.003, 426.219 1034.036 L 449.500 1034.072 451.500 1038.269 C 459.206 1054.440, 483.961 1044.294, 479.311 1026.871 L 478.321 1023.161 498.910 1002.594 L 519.500 982.026 550.341 981.763 L 581.183 981.500 577.341 976.754 L 573.500 972.008 544.491 972.004 L 515.483 972 493.546 993.954 M 542.350 1017.750 C 541.728 1018.712, 531.767 1030.682, 520.215 1044.348 L 499.212 1069.196 494.644 1069.484 C 477.598 1070.557, 472.913 1092.601, 488.470 1098.542 C 501.313 1103.447, 514.760 1089.647, 508.614 1077.868 C 507.266 1075.285, 507.616 1074.789, 527.370 1051.280 L 547.500 1027.324 557 1026.667 C 562.225 1026.306, 574.712 1026.008, 584.750 1026.005 L 603 1026 603 1021 L 603 1016 573.241 1016 C 545.996 1016, 543.385 1016.148, 542.350 1017.750 M 740.373 1058.941 C 710.523 1066.924, 690.478 1095.054, 693.753 1124.365 C 699.836 1178.796, 760.583 1200.399, 799.151 1161.846 C 843.259 1117.755, 800.484 1042.867, 740.373 1058.941 M 597.569 1077.045 C 594.393 1079.669, 592.117 1080.860, 591.087 1080.436 C 576.730 1074.529, 564.035 1085.369, 569.616 1098.770 C 575.666 1113.297, 595.783 1110.054, 597.842 1094.219 C 598.404 1089.902, 599.068 1088.712, 602.388 1086.081 L 606.275 1083 621.471 1083 C 639.219 1083, 639.342 1082.943, 633.814 1077.311 L 629.584 1073 616.023 1073 L 602.463 1073 597.569 1077.045" fill="url(#myGradient)" stroke="none"/>
        
      </g>
    </svg>